<?xml version="1.0" standalone="no"?><!DOCTYPE svg PUBLIC "-//W3C//DTD SVG 1.1//EN" "http://www.w3.org/Graphics/SVG/1.1/DTD/svg11.dtd"><svg t="1715053403017" class="icon" viewBox="0 0 1024 1024" version="1.1" xmlns="http://www.w3.org/2000/svg" p-id="4289" xmlns:xlink="http://www.w3.org/1999/xlink" width="200" height="200"><path d="M752.96 596.32c16.64 0 30.08 13.504 30.08 30.144V987.84a30.112 30.112 0 1 1-60.224 0V626.464c0-16.64 13.504-30.144 30.112-30.144z m120.448 90.368c16.64 0 30.112 13.472 30.112 30.112v271.04a30.112 30.112 0 1 1-60.224 0V716.8c0-16.64 13.472-30.112 30.112-30.112z m-240.96 120.48c16.64 0 30.144 13.472 30.144 30.08v150.624a30.112 30.112 0 0 1-60.224 0v-150.592c0-16.64 13.44-30.112 30.08-30.112z m-481.856-240.96c15.456 0 28.16 11.616 29.92 26.624l0.192 3.52v361.376H512a30.112 30.112 0 0 1 3.52 60.032l-3.52 0.224H180.704A60.224 60.224 0 0 1 120.64 962.24l-0.16-4.48V596.288c0-16.64 13.472-30.08 30.08-30.08zM866.496 32c24.064 0 45.664 14.304 55.168 36.096l1.76 4.448 98.816 285.6a30.08 30.08 0 0 1 1.664 10.176l0.096 2.144a150.592 150.592 0 0 1-271.072 90.304 150.208 150.208 0 0 1-120.448 60.256c-49.28 0-93.024-23.68-120.512-60.256a150.208 150.208 0 0 1-120.448 60.256c-49.28 0-93.024-23.68-120.48-60.256A150.592 150.592 0 0 1 0 370.432a30.4 30.4 0 0 1 0.288-4.128 29.76 29.76 0 0 1 0.96-6.72l1.12-3.36 112.864-286.08a60.224 60.224 0 0 1 51.104-37.952L171.264 32h695.232z m0 60.224H171.264l-110.944 281.248 0.096 2.496a90.368 90.368 0 0 0 180.384-0.224l0.128-5.28a30.112 30.112 0 0 1 60.256 0 90.368 90.368 0 0 0 180.544 5.28l0.16-5.28a30.112 30.112 0 0 1 60.224 0 90.368 90.368 0 0 0 180.544 5.28l0.16-5.28a30.112 30.112 0 0 1 60.256 0 90.368 90.368 0 0 0 180.544 5.28l0.032-2.592-97.152-280.928z" fill="#FF7700" p-id="4290"></path></svg>