<?xml version="1.0" standalone="no"?><!DOCTYPE svg PUBLIC "-//W3C//DTD SVG 1.1//EN" "http://www.w3.org/Graphics/SVG/1.1/DTD/svg11.dtd"><svg t="1716822832347" class="icon" viewBox="0 0 1024 1024" version="1.1" xmlns="http://www.w3.org/2000/svg" p-id="2762" xmlns:xlink="http://www.w3.org/1999/xlink" width="200" height="200"><path d="M746.366 418.254c-129.803 0-237.972 104.563-237.972 237.971s104.564 237.972 237.972 237.972c129.803 0 237.972-104.563 237.972-237.972S879.775 418.254 746.366 418.254z m54.085 205.52h46.873c3.606 0 7.211 0 10.817 3.606 3.605 3.606 3.605 7.212 3.605 7.212v25.239c0 3.606-3.605 7.211-10.816 7.211h-61.296c-3.606 0-7.211 0-7.211 3.606-3.606 0-3.606 3.606-3.606 7.211v18.028c0 3.606 3.606 7.212 10.817 3.606h61.296c7.21 0 10.816 3.606 10.816 10.817v25.24c0 7.21-3.605 10.816-14.422 10.816h-57.69c-7.211 0-10.817 3.606-10.817 10.817v43.268c0 3.605-3.606 7.211-7.211 7.211h-32.451c-10.817 0-14.423-3.606-14.423-10.817v-43.268H652.62c-10.817 0-14.423-3.605-14.423-14.422v-18.028c0-3.606 3.606-7.212 3.606-10.817 0-3.606 3.605-3.606 7.211-3.606h72.113s3.605-3.605 3.605-7.211v-21.634c0-3.605-3.605-7.211-14.422-7.211h-68.507c-3.606 0-3.606-3.606-3.606-7.211v-28.845c0-3.606 0-7.212 3.606-10.817 3.605-3.606 7.211-3.606 14.422-3.606H703.1c3.605 0 7.21 0 3.605-3.606l-14.422-14.422c-7.212-10.817-14.423-18.028-21.634-28.845-10.817-14.423-18.028-25.24-32.45-39.662-3.606-7.211-3.606-14.423 3.605-18.028 3.605-3.606 7.211-3.606 10.817-7.212 3.605-3.605 7.211-7.21 14.422-10.817 7.212-3.605 14.423 0 21.634 10.817 3.606 3.606 7.211 7.212 10.817 14.423 7.211 7.211 10.817 14.422 18.028 25.24 7.211 7.21 14.423 14.422 18.028 21.633 7.212 7.211 7.212 10.817 10.817 14.423 0 3.605 3.606 3.605 7.211 7.21 3.606 0 7.212 0 7.212-3.605 0 0 3.605-7.211 10.817-14.422 3.605-7.211 10.817-14.423 18.028-25.24 7.211-10.817 14.422-18.028 18.028-25.24 7.211-7.21 10.817-14.422 10.817-14.422l10.817-10.817h14.422c3.606 0 7.212 3.606 10.817 7.212 3.606 3.605 7.211 3.605 7.211 7.211 7.212 7.211 10.817 14.423 7.212 21.634 0 3.605-7.212 7.211-10.817 14.422-7.211 7.212-14.423 18.029-21.634 28.845-7.211 10.817-14.422 18.029-21.634 28.845-7.211 7.212-10.817 14.423-10.817 14.423-7.21 0-7.21 3.606-3.605 3.606zM497.577 122.593c-162.253 0-292.056 64.901-292.056 144.225s129.803 144.225 292.056 144.225 292.057-64.901 292.057-144.225c3.605-79.324-129.803-144.225-292.057-144.225z m93.747 324.507c-28.845 3.605-61.296 7.21-93.747 7.21-140.62 0-256-46.872-284.845-111.774-3.605 10.817-7.21 21.634-7.21 32.45 0 79.325 129.802 144.226 292.055 144.226h21.634c21.634-28.845 43.268-50.479 72.113-72.112z m191.099-39.662c3.605-10.817 7.21-21.634 7.21-32.451s-3.605-21.634-7.21-32.45c-10.817 21.633-32.451 43.267-61.296 61.295h14.422c14.423 0 32.451 0 46.874 3.606zM497.577 551.662c-140.62 0-256-46.873-284.845-111.775-3.605 10.817-7.21 21.634-7.21 32.451 0 79.324 122.59 140.62 277.633 144.225 3.606-21.633 10.817-43.267 18.028-64.901h-3.606z m-14.422 93.746c-129.803-3.605-241.578-50.478-266.817-111.774-3.606 10.817-7.211 21.634-7.211 32.45 0 79.324 126.197 140.62 281.24 144.226-3.606-18.028-7.212-36.056-7.212-54.085v-10.817z m-270.423-14.422c-3.605 10.817-7.21 21.634-7.21 32.45 0 79.325 129.802 144.226 292.055 144.226h32.451c-14.422-18.028-25.24-39.662-32.45-64.901-137.015 0-256-50.48-284.846-111.775zM555.268 832.9c-18.029 3.606-39.662 3.606-57.69 3.606-140.62 0-256-46.873-284.846-111.775-3.605 10.817-7.21 21.634-7.21 32.451 0 79.324 129.802 144.225 292.055 144.225 46.874 0 93.747-7.21 133.409-14.422-28.845-14.423-50.479-32.45-75.718-54.085z" fill="#F56325" p-id="2763"></path></svg>