<?xml version="1.0" standalone="no"?><!DOCTYPE svg PUBLIC "-//W3C//DTD SVG 1.1//EN" "http://www.w3.org/Graphics/SVG/1.1/DTD/svg11.dtd"><svg t="1714876014818" class="icon" viewBox="0 0 1024 1024" version="1.1" xmlns="http://www.w3.org/2000/svg" p-id="5336" xmlns:xlink="http://www.w3.org/1999/xlink" width="200" height="200"><path d="M947 414.3c0-3.8-0.6-7.6-2-11.5l-0.8-2.4c-1.5-5.4-3.3-10.6-5.6-15.6l-85.9-241.3c-9.1-25.6-33.5-42.7-60.9-42.7H237c-27 0-51.2 16.7-60.6 41.9L90 375.8c-8.9 15.8-14 34-14 53.4 0 60.2 48.8 109 109 109 53.7 0 98.4-38.9 107.3-90h3.3c9 51.1 53.6 90 107.3 90s98.4-38.9 107.3-90h3.3c9 51.1 53.6 90 107.3 90s98.4-38.9 107.3-90h3.3c9 51.1 53.6 90 107.3 90 60.2 0 109-48.8 109-109 0.3-5-0.1-10-0.7-14.9zM802.3 917H229.7c-50 0-90.7-43.1-90.7-96V549h64v272c0 17.6 12 32 26.7 32h572.6c14.7 0 26.7-14.4 26.7-32V549h64v272c0 52.9-40.7 96-90.7 96z" p-id="5337"></path><path d="M861 863l-676-0.5L294 681h436z" p-id="5338"></path></svg>