<?xml version="1.0" standalone="no"?><!DOCTYPE svg PUBLIC "-//W3C//DTD SVG 1.1//EN" "http://www.w3.org/Graphics/SVG/1.1/DTD/svg11.dtd"><svg t="1714876717260" class="icon" viewBox="0 0 1024 1024" version="1.1" xmlns="http://www.w3.org/2000/svg" p-id="13312" xmlns:xlink="http://www.w3.org/1999/xlink" width="200" height="200"><path d="M895.3 236.3v550.4h-768V236.3h768m4-64h-776c-33.1 0-60 26.9-60 60v558.4c0 33.1 26.9 60 60 60h776c33.1 0 60-26.9 60-60V232.3c0-33.1-26.8-60-60-60z" p-id="13313"></path><path d="M732.1 349c28.7 0 52.1 23.4 52.1 52.1s-23.4 52.1-52.1 52.1-52.1-23.4-52.1-52.1 23.4-52.1 52.1-52.1m0-64C668 285 616 337 616 401.1s52 116.1 116.1 116.1 116.1-52 116.1-116.1S796.2 285 732.1 285zM543.8 511.5H224.3c-17.7 0-32.3 14.5-32.3 32.3s14.5 32.3 32.3 32.3h319.5c17.7 0 32.3-14.5 32.3-32.3s-14.6-32.3-32.3-32.3zM725.7 639.7H224.3c-17.7 0-32.3 14.5-32.3 32.3s14.5 32.3 32.3 32.3h501.4c17.7 0 32.3-14.5 32.3-32.3s-14.5-32.3-32.3-32.3z" p-id="13314"></path></svg>