<?xml version="1.0" standalone="no"?><!DOCTYPE svg PUBLIC "-//W3C//DTD SVG 1.1//EN" "http://www.w3.org/Graphics/SVG/1.1/DTD/svg11.dtd"><svg t="1714877066680" class="icon" viewBox="0 0 1024 1024" version="1.1" xmlns="http://www.w3.org/2000/svg" p-id="4249" xmlns:xlink="http://www.w3.org/1999/xlink" width="200" height="200"><path d="M273.066667 0h477.866666a204.8 204.8 0 0 1 204.8 204.8v614.4a204.8 204.8 0 0 1-204.8 204.8H273.066667a204.8 204.8 0 0 1-204.8-204.8V204.8a204.8 204.8 0 0 1 204.8-204.8z m0 68.266667a136.533333 136.533333 0 0 0-136.533334 136.533333v614.4a136.533333 136.533333 0 0 0 136.533334 136.533333h477.866666a136.533333 136.533333 0 0 0 136.533334-136.533333V204.8a136.533333 136.533333 0 0 0-136.533334-136.533333H273.066667z" fill="#3296FA" p-id="4250"></path><path d="M314.436267 358.4a51.2 51.2 0 1 0 0-102.4 51.2 51.2 0 0 0 0 102.4zM314.436267 563.2a51.2 51.2 0 1 0 0-102.4 51.2 51.2 0 0 0 0 102.4zM314.436267 768a51.2 51.2 0 1 0 0-102.4 51.2 51.2 0 0 0 0 102.4z" fill="#3296FA" p-id="4251"></path><path d="M409.6 273.066667m34.133333 0l273.066667 0q34.133333 0 34.133333 34.133333l0 0q0 34.133333-34.133333 34.133333l-273.066667 0q-34.133333 0-34.133333-34.133333l0 0q0-34.133333 34.133333-34.133333Z" fill="#3296FA" p-id="4252"></path><path d="M409.6 477.866667m34.133333 0l273.066667 0q34.133333 0 34.133333 34.133333l0 0q0 34.133333-34.133333 34.133333l-273.066667 0q-34.133333 0-34.133333-34.133333l0 0q0-34.133333 34.133333-34.133333Z" fill="#3296FA" p-id="4253"></path><path d="M409.6 682.666667m34.133333 0l273.066667 0q34.133333 0 34.133333 34.133333l0 0q0 34.133333-34.133333 34.133333l-273.066667 0q-34.133333 0-34.133333-34.133333l0 0q0-34.133333 34.133333-34.133333Z" fill="#3296FA" p-id="4254"></path></svg>