<?xml version="1.0" standalone="no"?><!DOCTYPE svg PUBLIC "-//W3C//DTD SVG 1.1//EN" "http://www.w3.org/Graphics/SVG/1.1/DTD/svg11.dtd"><svg t="1715053328604" class="icon" viewBox="0 0 1024 1024" version="1.1" xmlns="http://www.w3.org/2000/svg" p-id="4263" xmlns:xlink="http://www.w3.org/1999/xlink" width="200" height="200"><path d="M741.46 199.942h-41.68c-10.42 0-20.84 7.815-20.84 18.236 2.605 13.024 10.421 20.84 20.84 20.84h41.68c39.077 0 70.338 28.654 70.338 65.125v466.302c0 36.47-31.26 65.127-70.337 65.127H280.369c-39.076 0-70.336-28.657-70.336-65.127V304.143c0-36.47 31.26-65.126 70.336-65.126h46.89c10.42 0 20.84-7.815 20.84-18.235 0-10.421-7.814-18.236-20.84-18.236h-46.89c-59.915 0-109.412 46.891-109.412 101.596v466.302c0 57.312 49.497 101.597 109.412 101.597h461.092c59.915 0 109.412-46.89 109.412-101.597v-466.3c0-57.312-49.497-104.202-109.412-104.202z" fill="#1677FF" p-id="4264"></path><path d="M587.763 288.513H439.277c-39.077 0-72.942-31.26-72.942-67.73 0-36.472 31.26-67.732 72.942-67.732h148.486c39.076 0 72.942 31.26 72.942 67.731 0 36.47-31.26 67.73-72.942 67.73z m-145.88-96.386c-18.237 0-31.261 13.025-31.261 28.655s15.63 28.655 31.26 28.655H590.37c18.235 0 31.26-13.025 31.26-28.655s-15.63-28.655-31.26-28.655H441.882zM635.267 562.754A17.555 17.555 0 0 0 630 528.601H524.988v-31.918l108.205-107.247a19.473 19.473 0 0 0 1.596-6.862 17.555 17.555 0 0 0-4.31-12.768 19.15 19.15 0 0 0-24.098-1.915l-97.832 95.757-104.214-100.864a15.953 15.953 0 0 0-10.693-3.35 18.354 18.354 0 0 0-13.566 5.105 17.555 17.555 0 0 0-1.755 20.748l1.755 2.714 109.802 107.407v33.196l-110.12 0.798a17.396 17.396 0 0 0 0 33.195l2.873 0.959h107.087v54.101l-110.12 0.798a17.396 17.396 0 0 0-12.129 15.96 17.554 17.554 0 0 0 12.13 15.959l2.713 0.958h107.406v107.726l0.959 1.755a17.393 17.393 0 0 0 33.195 0l0.958-2.872V652.928l110.279-0.798a17.555 17.555 0 0 0-5.267-34.153H524.99v-54.262l110.278-0.96z" fill="#1677FF" p-id="4265"></path></svg>