<?xml version="1.0" standalone="no"?><!DOCTYPE svg PUBLIC "-//W3C//DTD SVG 1.1//EN" "http://www.w3.org/Graphics/SVG/1.1/DTD/svg11.dtd"><svg t="1714876510940" class="icon" viewBox="0 0 1024 1024" version="1.1" xmlns="http://www.w3.org/2000/svg" p-id="11317" xmlns:xlink="http://www.w3.org/1999/xlink" width="200" height="200"><path d="M378.88 471.04H92.16a92.16 92.16 0 0 1-92.16-92.16V92.16a92.16 92.16 0 0 1 92.16-92.16h286.72a92.16 92.16 0 0 1 92.16 92.16v286.72a92.16 92.16 0 0 1-92.16 92.16zM92.16 61.44a30.72 30.72 0 0 0-30.72 30.72v286.72a30.72 30.72 0 0 0 30.72 30.72h286.72a30.72 30.72 0 0 0 30.72-30.72V92.16a30.72 30.72 0 0 0-30.72-30.72zM378.88 1024H92.16a92.16 92.16 0 0 1-92.16-92.16V645.12a92.16 92.16 0 0 1 92.16-92.16h286.72a92.16 92.16 0 0 1 92.16 92.16v286.72a92.16 92.16 0 0 1-92.16 92.16zM92.16 614.4a30.72 30.72 0 0 0-30.72 30.72v286.72a30.72 30.72 0 0 0 30.72 30.72h286.72a30.72 30.72 0 0 0 30.72-30.72V645.12a30.72 30.72 0 0 0-30.72-30.72zM931.84 471.04H645.12a92.16 92.16 0 0 1-92.16-92.16V92.16a92.16 92.16 0 0 1 92.16-92.16h286.72a92.16 92.16 0 0 1 92.16 92.16v286.72a92.16 92.16 0 0 1-92.16 92.16zM645.12 61.44a30.72 30.72 0 0 0-30.72 30.72v286.72a30.72 30.72 0 0 0 30.72 30.72h286.72a30.72 30.72 0 0 0 30.72-30.72V92.16a30.72 30.72 0 0 0-30.72-30.72z" p-id="11318"></path><path d="M552.96 552.96m30.72 0l225.28 0q30.72 0 30.72 30.72l0 0q0 30.72-30.72 30.72l-225.28 0q-30.72 0-30.72-30.72l0 0q0-30.72 30.72-30.72Z" fill="#2F78FE" p-id="11319"></path><path d="M552.96 1024m0-30.72l0-143.36q0-30.72 30.72-30.72l0 0q30.72 0 30.72 30.72l0 143.36q0 30.72-30.72 30.72l0 0q-30.72 0-30.72-30.72Z" p-id="11320"></path><path d="M696.32 962.56m30.72 0l266.24 0q30.72 0 30.72 30.72l0 0q0 30.72-30.72 30.72l-266.24 0q-30.72 0-30.72-30.72l0 0q0-30.72 30.72-30.72Z" p-id="11321"></path><path d="M962.56 552.96m30.72 0l0 0q30.72 0 30.72 30.72l0 409.6q0 30.72-30.72 30.72l0 0q-30.72 0-30.72-30.72l0-409.6q0-30.72 30.72-30.72Z" p-id="11322"></path><path d="M696.32 716.8m30.72 0l0 0q30.72 0 30.72 30.72l0 245.76q0 30.72-30.72 30.72l0 0q-30.72 0-30.72-30.72l0-245.76q0-30.72 30.72-30.72Z" p-id="11323"></path></svg>