<?xml version="1.0" standalone="no"?><!DOCTYPE svg PUBLIC "-//W3C//DTD SVG 1.1//EN" "http://www.w3.org/Graphics/SVG/1.1/DTD/svg11.dtd"><svg t="1714876774767" class="icon" viewBox="0 0 1058 1024" version="1.1" xmlns="http://www.w3.org/2000/svg" p-id="15295" xmlns:xlink="http://www.w3.org/1999/xlink" width="206.640625" height="200"><path d="M82.711652 1009.699922A68.411574 68.411574 0 0 1 14.300078 941.288348V606.981119a68.382974 68.382974 0 0 1 68.411574-68.411574h334.307229a68.382974 68.382974 0 0 1 68.382974 68.411574v334.307229a68.382974 68.382974 0 0 1-68.382974 68.411574z m0-68.411574h334.307229V606.981119H82.711652z m651.482963-67.467769a34.320188 34.320188 0 0 1-34.148587-34.320188 34.320188 34.320188 0 0 1 34.148587-34.320188h174.203553a34.320188 34.320188 0 0 1 34.320187 34.320188 34.320188 34.320188 0 0 1-34.320187 34.320188z m-508.167579-65.494358a34.119987 34.119987 0 0 1-34.148587-34.148587 34.148587 34.148587 0 0 1 34.148587-34.320188h46.789856a34.320188 34.320188 0 0 1 34.148587 34.320188 34.320188 34.320188 0 0 1-34.148587 34.148587z m508.167579-91.520501a34.320188 34.320188 0 0 1-34.148587-34.148587 34.320188 34.320188 0 0 1 34.148587-34.320187h174.203553a34.320188 34.320188 0 0 1 34.320187 34.320187 34.320188 34.320188 0 0 1-34.320187 34.148587zM641.215507 485.344654a68.382974 68.382974 0 0 1-68.382974-68.411574V82.625852A68.382974 68.382974 0 0 1 641.215507 14.214278h334.307228a68.382974 68.382974 0 0 1 68.411574 68.411574v334.307228a68.411574 68.411574 0 0 1-68.411574 68.411574z m0-68.411574h334.307228V82.625852H641.272707zM82.740252 485.344654a68.411574 68.411574 0 0 1-68.411574-68.411574V82.625852A68.382974 68.382974 0 0 1 82.740252 14.214278h334.307229a68.382974 68.382974 0 0 1 68.382974 68.411574v334.307228a68.382974 68.382974 0 0 1-68.382974 68.411574z m0-68.411574h334.307229V82.625852H82.740252zM784.559491 283.999553a34.320188 34.320188 0 0 1-34.320188-34.320188 34.320188 34.320188 0 0 1 34.320188-34.148586h46.704055a34.320188 34.320188 0 0 1 34.320188 34.148586 34.320188 34.320188 0 0 1-34.320188 34.320188z m-558.503855 0a34.148587 34.148587 0 0 1-34.148587-34.320188 34.119987 34.119987 0 0 1 34.148587-34.148586H272.845492a34.320188 34.320188 0 0 1 34.148587 34.148586 34.320188 34.320188 0 0 1-34.148587 34.320188z" p-id="15296"></path></svg>