<?xml version="1.0" standalone="no"?><!DOCTYPE svg PUBLIC "-//W3C//DTD SVG 1.1//EN" "http://www.w3.org/Graphics/SVG/1.1/DTD/svg11.dtd"><svg t="1715049370675" class="icon" viewBox="0 0 1039 1024" version="1.1" xmlns="http://www.w3.org/2000/svg" p-id="5155" xmlns:xlink="http://www.w3.org/1999/xlink" width="202.9296875" height="200"><path d="M898.048 8.192H358.4a38.4 38.4 0 0 0 0 76.8h539.648a64 64 0 0 1 64 64v512a64 64 0 0 1-64 64H153.6a64 64 0 0 1-64-64v-512A64 64 0 0 1 153.6 84.992a38.4 38.4 0 0 0 0-76.8A140.8 140.8 0 0 0 13.824 148.992v512A140.8 140.8 0 0 0 153.6 801.792h110.592l-82.944 157.696a38.4 38.4 0 0 0 68.096 35.84l102.4-193.536h349.184l98.816 193.024a38.4 38.4 0 1 0 68.096-34.816l-80.896-158.208h111.616a140.8 140.8 0 0 0 140.8-140.8v-512A140.8 140.8 0 0 0 898.048 8.192z" fill="#438CFF" p-id="5156"></path><path d="M211.456 630.272a37.888 37.888 0 0 0 20.992 6.656 38.4 38.4 0 0 0 32.256-17.408l141.312-212.992 178.688 130.048a38.4 38.4 0 0 0 51.2-8.192l142.336-189.44a38.4 38.4 0 1 0-61.44-45.568l-117.76 158.72-180.224-131.584a38.4 38.4 0 0 0-54.784 9.728l-163.328 246.784a38.4 38.4 0 0 0 10.752 53.248z" fill="#438CFF" p-id="5157"></path><path d="M833.024 212.48m-51.2 0a51.2 51.2 0 1 0 102.4 0 51.2 51.2 0 1 0-102.4 0Z" fill="#438CFF" p-id="5158"></path></svg>