<?xml version="1.0" standalone="no"?><!DOCTYPE svg PUBLIC "-//W3C//DTD SVG 1.1//EN" "http://www.w3.org/Graphics/SVG/1.1/DTD/svg11.dtd"><svg t="1714877243256" class="icon" viewBox="0 0 1024 1024" version="1.1" xmlns="http://www.w3.org/2000/svg" p-id="5364" xmlns:xlink="http://www.w3.org/1999/xlink" width="200" height="200"><path d="M512 20.48C240.5376 20.48 20.48 240.5376 20.48 512s220.0576 491.52 491.52 491.52 491.52-220.0576 491.52-491.52S783.4624 20.48 512 20.48z m273.1008 527.9744c0 150.7328-273.1008 272.9984-273.1008 272.9984S238.8992 699.1872 238.8992 548.4544V311.7056L512 202.5472l273.1008 109.1584z" fill="#86B2F5" p-id="5365"></path><path d="M440.1152 353.3824a18.3296 18.3296 0 0 0-25.7024 0 17.8176 17.8176 0 0 0 0 25.3952l63.8976 63.1808h-57.344a18.0224 18.0224 0 1 0 0 35.9424h72.8064v35.9424h-72.8064a18.0224 18.0224 0 1 0 0 35.9424h72.8064v108.032a18.2272 18.2272 0 0 0 36.4544 0V549.9904h72.8064a18.0224 18.0224 0 1 0 0-35.9424h-72.8064v-36.0448h72.8064a18.0224 18.0224 0 1 0 0-35.9424h-57.344l64-63.1808a17.8176 17.8176 0 0 0 0-25.3952 18.3296 18.3296 0 0 0-25.7024 0L512 424.448z" fill="#86B2F5" p-id="5366"></path></svg>